<svg xmlns="http://www.w3.org/2000/svg" viewBox="0 0 200 100">
    <defs>
        <style>.cls-10{fill:#919272}</style>
    </defs>
    <path d="M201 14v83c-4 3-9 3-11-1l-6-3h-13l-15-1a43 43 0 0 0-11 1h-11a33 33 0 0 0-7 0c-9 2-17 1-26 1a38 38 0 0 0-13 3c-6 3-12 3-18 1l-4-2c-2-3-4-2-7-1l-3 1c-7-1-13 1-20 1-6-1-12 0-18 1a104 104 0 0 1-10 2c-3 0-6 0-8-3V11 9c3-4 6-5 12-2a2 2 0 0 1 1 1 3 3 0 0 1 0 2c-1 1-3 1-2 2l4 1a14 14 0 0 1 12 3l4 4c2 2 1 5 3 7 1 2 3 5 6 6s3 5 5 7l4 1c-1-1-3 0-5-2a6 6 0 0 1 0-4 5 5 0 0 1 4-3c6-1 10-5 13-10l6-3-2-1c-3-2-5-2-7 1-3 2-8 1-11-3a3 3 0 0 1 1-3l8-5c1-1 3 2 4 2-1-2-6-1-4-6 3-2 5-1 8 0 2 0 5 0 7 2 0 2 0 4 3 5s4-2 7-2 5-1 7-3c2-3 6-3 9-4l9-1c3 3 6 3 9 1a7 7 0 0 1 4-2 108 108 0 0 1 16 1c4 1 9 2 13 1 2 0 5 0 5 2 0 3-2 4-4 4l-5 1-3 2c-6 1-12 0-18 2l-7-2c-5-1-8 0-10 5v1l-1 3c-3 1-4 3-6 6-2 2-2 5-3 8l-3 6a6 6 0 0 0 0 3 3 3 0 0 0 2 2l5 1c6 0 6 0 8 7l1 2a7 7 0 0 1 0 3c-1 5 2 10 6 10 4-4 6-9 6-15a3 3 0 0 1 1-2c3-2 3-5 2-8a7 7 0 0 1 3-3 6 6 0 0 0 4-5 3 3 0 0 1 1-1c3 0 6 0 8 3 4 3 4 3 7 0a4 4 0 0 1 2 0c4-1 6 1 7 5-2 3 2 5 1 7 1-2-3-3-1-6l2-4a3 3 0 0 1 3-3c4-1 6-3 5-7a3 3 0 0 1 0-2c2-2 6-1 8-4l2-4c0-3 1-4 4-5l6-1c4 2 8 0 11-1l4 2z" fill="#005f97"/>
    <path d="M0 97c6 1 11 0 17-1 7-1 15-3 22 0 3 0 5-3 8-2a18 18 0 0 0 17-4c2-1 3-1 2 2 0 3 1 4 4 5a30 30 0 0 0 19-2c6-3 13-3 20-3l16-1a23 23 0 0 1 10 0c6 1 12 0 17-1a65 65 0 0 1 11 0c7 1 14-1 21 1l9 2c1 2-2 2-1 4h9v8H5c-4 0-6-1-5-5a14 14 0 0 0 0-3z" fill="#e0e6ef"/>
    <path d="M12 8C8 8 4 6 0 9 0 5-2-1 0-3s7 0 11 0h187c2 0 3 0 3 3a70 70 0 0 0 0 8c-2 3-5 2-7 2h-1c-6-3-12-2-17-3-3-1-6 1-9 1l-11-1-3-1c0-3-2-3-4-3-2 1-5 2-7 0a2 2 0 0 0-1 0c-8 1-15-2-23-1-4 0-7 3-11 1L97 4 87 3c-3-1-5 1-7 1L67 3a39 39 0 0 0-13 0l-3 1c-3-1-4 1-7 2L34 7a17 17 0 0 0-4 2 3 3 0 0 1-1 1 4 4 0 0 1-1 0 30 30 0 0 0-9-1 14 14 0 0 1-7-1z" fill="#e8f0f3"/>
    <path d="M194 9l7-1v6c-4 1-8-1-11 4 0 1-1 2-2 1s0-2 0-2 2-1 1-2-1-1-2 0a31 31 0 0 1-17-1 6 6 0 0 0-3-1c-8 3-15 0-23 2-3 0-4-2-3-5 0-2 1-2 2-2a3 3 0 0 0 3 1c7-2 15-1 22-1l5-1c6 0 12-1 17 2h4z" fill="#858f85"/>
    <path d="M0 10l5 1c-2 2-4 0-5 0z" fill="#7a8d92"/>
    <path d="M141 10c0 2 1 4 3 3 5-2 9 0 13-1l9-1c3-1 6 1 9 2 4 2 8 2 12 2l-6 1c-3 0-3 0-2 4 0 2-2 4-4 5s-3 2-3 5c-2-2-3-4-5-2-2 3-3 5-7 3-3-3 2-4 3-6l-4-1-5-2h-1c-7 0-13-2-19-3-1-3-4-4-7-4-2 0-5 0-4-3l12-2c1-1 2 0 3-2 2-2 3 0 3 2z" fill="#6d8c76"/>
    <path d="M132 36c2 1 2 3 0 4-3 1-5 3-8 3l-2-4a4 4 0 0 1 0 2c-2 3-5 5-8 3a6 6 0 0 0-3 0c-6 1-11-1-17-1-1 1-3 0-3-2-1-4 1-6 4-7 1-2 2-5 4-5 3-2 6-1 9 0 4 1 8 3 12 0 3-3 5-2 7 2a50 50 0 0 0 5 5z" fill="#c6b09a"/>
    <path d="M100 30l-5 4c0-3 2-4 1-7v-1c6-2 1-5 2-8l-1-1c3 0 6 7 8 0 2 0 5 3 7-1-2 4-5 1-7 1-1-1-2-2-1-3 4-6 14-7 19-2 2 2 5 1 8 1 4 1 4 2 3 5 0 3-1 3-3 3l-10 1a2 2 0 0 0-2 2 3 3 0 0 0-1 3 4 4 0 0 1 0 2c-2 2-5 1-7 0-4-2-8-3-11 1z" fill="#64856a"/>
    <path d="M66 17a19 19 0 0 1 2 1l2 4c-2 2-2-1-3-1a20 20 0 0 0-3 0c-1 1 3 4-2 4l-4 3c-2 3-4 5-7 5-2 0-4 0-5 2-3-2-2-4-1-6s1-4-1-5-3-3-5-1c-2 3-5 4-7 5-2-2 0-5-2-7l-1-3c-1-3 0-5 3-5a24 24 0 0 0 6-2c3 2 7 1 9 5l8 3c1 1 1 0 2-1a19 19 0 0 1 9-1z" fill="#5a7e69"/>
    <path class="cls-10" d="M117 29v-2c0-1 2-2 1-4 1-3 4-3 7-3 3-1 6 1 9-2 5 0 10-1 15 3h4c2 4 2 4-3 6a19 19 0 0 0-7 4 10 10 0 0 1-1 2c-4 1-6-1-5-5 0-3 0-4-3-3l-4 1c-2 1-1 2 0 3 1 2 3 4 2 6v1c-3 1-4-1-5-3-2-4-3-5-6-3l-4-1z"/>
    <path d="M186 67c-1 3-1 5-3 6a4 4 0 0 1-5-1c-3-2-5-3-9-1-1 0-3 2-4-2-1-2-2-5 2-6 2-1 4-4 6-4h3c1 2 2 3 4 1v-1l6 8z" fill="#a18d71"/>
    <path d="M32 29l1-5c3 0 4-3 6-4s5 0 7 2c1 2 2 4 1 7a11 11 0 0 0-1 6v4l-1 2c-4-2-5-6-9-8l-4-4z" fill="#939171"/>
    <path d="M122 53c2 8-2 13-6 17a2 2 0 0 1-1-1c0-4-2-5-4-6a4 4 0 0 1-3-4v-4c-1-2 1-2 2-3l3-1c0-2-2-1-3-2-5-2-11-1-17-3l-2-3h2l22 2a7 7 0 0 0 3-1c3-1 5 1 4 4 0 2-2 4 0 5z" fill="#7c906b"/>
    <path d="M74 52l3 1c3 0 4 1 3 5-2 6-7 8-9 13a7 7 0 0 0-2-1c-5 0-7-1-7-7a18 18 0 0 1 0-2c3-5 7-8 12-9z" fill="#728b65"/>
    <path d="M47 16a29 29 0 0 1-9-3h-5c-1 0-3-1-3-3a2 2 0 0 0 0-2 4 4 0 0 1 3-2h11a11 11 0 0 1 5-1h6a1 1 0 0 1 1 1c2 3 7 2 9 5-2 3-4 3-6 1-3-3-3-3-5 1h-2a4 4 0 0 0-5 3z" fill="#859599"/>
    <path d="M30 10c2 2 6 0 8 3-7 2-7 2-8 8-5-5-9-7-16-5-3 1-7-1-6-4 0-3 2-4 4-3h17a1 1 0 0 1 1 1z" fill="#76887c"/>
    <path d="M67 2c5-2 9-1 13-1l6 1c3 1 3 3 1 5a14 14 0 0 1-6 4c-2 0-3 1-5 3-1 2-2 1-4-1-1-1 0-4-2-5l-6-3c-2-1-1-2 0-2l3-1z" fill="#dae2ec"/>
    <path d="M74 52l-11 9c-3 0-4-2-6-5a7 7 0 0 1 5-10h5c3 1 5 3 7 6z" fill="#4a7754"/>
    <path d="M160 30c2 1 4-1 7-2 3 6 2 9-5 10-2 0-3 1-1 4 1 1 0 2-1 3s-1 0-2-1a11 11 0 0 0-2-1h-1c-2-2-3-6-6-5-2-1-2-2-2-4 2-2 5-2 7-3a10 10 0 0 0 4-1 2 2 0 0 1 2 0z" fill="#607d5f"/>
    <path d="M122 53c-1 1-2 3-3 1s0-2 0-3a9 9 0 0 1 3-6c-8 3-15-1-22 0-3 1-6-3-9-2a2 2 0 0 1 0-2l2 1c5-2 9 1 14 1a17 17 0 0 1 7 0 7 7 0 0 0 7-3c3-1 2 2 3 3l1 1c1 1 3-1 4 1s-1 2-2 4l-5 4z" fill="#929672"/>
    <path d="M129 24c2-1 5 0 7-2 1-1 2 0 4 1s0 2-1 3c-2 5-2 5 3 6 2 1 2 2 2 4-1 2-2 3-4 2-2-2-5-1-8-3-3-1-3-3-3-6l-1-3 1-2z" fill="#ad9c8a"/>
    <path d="M58 56c1 3 4 3 5 5l1 2c-1 4 1 5 4 6 1 0 2 0 3 2-4 3-9 5-9 11l-1 1c-2-1-3-2-2-4l1-9c1-4 2-8-2-11l-1-2 1-1z" fill="#909279"/>
    <path d="M173 9v1c-9-2-18 0-26 0-2 1-4 0-4-2l9-3c-1-2-2-1-3-2a2 2 0 0 1 3 0c4 3 10 1 14 4a15 15 0 0 0 5 0c1-1 2 0 2 2z" fill="#939993"/>
    <path d="M93 46l19 2c2 0 5 0 5 3s-3 3-5 3l-4 1c-1-1-3-2-2-3 0-5-3-5-6-4-3 0-5 0-7-2z" fill="#547e5a"/>
    <path d="M108 59l4 2c5 2 6 4 4 9-3 2-5 2-6-2-1-3-4-6-2-9z" fill="#a19779"/>
    <path d="M140 38c1-2 3-3 2-6 1-1-3-2 0-3 3 1 5 1 6 5l1 4-4 4-1 3c-2 0-2-2-2-3l-2-4z" fill="#738968"/>
    <path d="M81 11l3-4c4-3 4-3-1-5l-3-1a54 54 0 0 1 17 3c-6 0-10 7-16 7z" fill="#a7baca"/>
    <path d="M67 2c1 0 2 0 1 1s-4 0-4 2c-3 0-5-1-8 1h-1c-1-1-2-2-1-4 4-2 9-1 13 0z" fill="#c1c9d1"/>
    <path d="M58 56l-1 1c-2-3-2-7 1-11 2-4 6-1 9 0-2 2-5 1-7 3-3 2-5 4-2 7z" fill="#69876b"/>
    <path d="M66 17a9 9 0 0 1-9 1c0-5 0-5 5-3 1 1 3 0 4 2z" fill="#758c84"/>
    <path d="M45 41l1-2h3c2-2 2 0 3 1 0 2 3 2 1 4-1 1-2-1-3-1a49 49 0 0 1-5-2z" fill="#4e775f"/>
    <path d="M155 43h1c0 4 4 7 4 12-3-1-4-4-6-6 3-2 0-4 1-6z" fill="#3f7363"/>
    <path d="M174 52c4 0 7 0 9 4-4 1-6-1-9-4z" fill="#4e7762"/>
    <path d="M107 3c3-2 7-1 11-1l-7 3c-2 1-4 0-4-2z" fill="#8bb0c6"/>
    <path d="M29 9H12V8l17 1z" fill="#3a7ea5"/>
    <path d="M166 46c0 4 0 6-2 7a2 2 0 0 1-2-2c0-2 2-3 4-5z" fill="#4a7458"/>
    <path d="M180 24c0 5-2 7-7 7a17 17 0 0 0 7-7z" fill="#3c7377"/>
    <path d="M128 59a35 35 0 0 1 0 3l-2 4a1 1 0 0 1-1-1 6 6 0 0 1 1-5l2-1z" fill="#698268"/>
    <path d="M194 77l1-1c2 0 2-3 4-3v1c-1 2-2 4-5 3z" fill="#4d7775"/>
    <path d="M130 8c2-2 3-3 6-2l-6 2z" fill="#7097ad"/>
    <path d="M70 8c3 0 2 3 2 5-2-1-2-3-2-5z" fill="#708d9f"/>
    <path d="M92 12h-4 4z" fill="#85979d"/>
    <path d="M49 7c-2 0-3 0-5 2-1 1-2-2-4-1a12 12 0 0 1-7-2l1-1c6 1 10-1 15-3a4 4 0 0 1 2 0c3 3-1 4-2 5z" fill="#c9d1d6"/>
    <path d="M173 9c-1-2-4-2-7-2 7-3 13-1 20-1 2 0 5 3 8 3 0 0 2 0 0 0-3 1-6 0-10-1a20 20 0 0 0-11 1z" fill="#1c6c9b"/>
    <path d="M49 7l2-5h3l1 4a19 19 0 0 1-6 1z" fill="#a4adb5"/>
    <path d="M30 10l-1-1 1-1c1 1 3-1 5 1l-5 1z" fill="#2f739a"/>
    <path d="M160 30h-2c-4 1-6-1-9-4 1-1 0-3 1-2 5 3 2-2 3-3h1l5 1a8 8 0 0 0 4 0h3a2 2 0 0 1-1 4l-5 4z" fill="#ab9884"/>
    <path class="cls-10" d="M159 23c-2 0-4 1-5-2 2-1 4 0 5 2z"/>
    <path d="M117 29c1 0 3-1 4 1l-2 2c-4-1-9 1-13-2h-6c-1-2 1-3 2-4 2-2 8-1 9 1s4 0 6 2z" fill="#096194"/>
    <path d="M124 43l-3-3c0-2-2-3-1-7 2 4 4 6 4 10z" fill="#246a93"/>
    <path d="M105 17c5 2 5-4 8-5-1 2 0 3 2 3-6 5-7 5-10 1z" fill="#14668e"/>
    <path d="M118 23a6 6 0 0 0 2 1c1 0 3 0 3 2s-2 0-3 0l-3 1c-3-2 0-3 1-4z" fill="#14648e"/>
    <path d="M149 26c4 0 6 3 9 4-1 4-6 5-10 4a11 11 0 0 1-6-5c2-1 4-3 7-3z" fill="#a7aaa8"/>
    <path d="M129 24c0 2 3 4 0 5-2-1-2-2-2-4s1-3 2-1z" fill="#1e6993"/>
    <path d="M155.6,33c-.44-.7-.72-.52-1.12-.87a.71.71,0,0,1-.12-1,.7.7,0,0,1,1-.12.72.72,0,0,1,1-.13.72.72,0,0,1,.12,1c-.3.44-.61.33-.87,1.12" fill="red"/>
</svg>