<svg xmlns="http://www.w3.org/2000/svg" viewBox="0 0 200 100">
    <defs>
        <style>.cls-2{fill:#5a5a5a}.cls-3{fill:#5c5c5c}.cls-7{fill:#5f5f5f}.cls-8{fill:#adadad}.cls-9{fill:#626262}.cls-10{fill:#616161}.cls-14{fill:#a7a7a7}.cls-18{fill:#aaa}</style>
    </defs>
    <path d="M-1 105V-1l1-4c-1-3 1-5 4-6h70c2 1 1 3 1 5l1-5h13c1 6-1 9-7 10 5-1 7-3 8-10h54c-1 6-7 7-11 9 5 0 9-5 13-9h53c3 0 4 1 4 4v112h-72c-3 0-4-1-2-3a11 11 0 0 1 8-5c-4 0-7 2-9 5l-3 3h-14c-3 0-3-2-2-4l2-3c-3 1-1 6-5 7H63c-2 0-3 0-1-2a15 15 0 0 0 2-7c0 3-1 7-5 9H41c-3-2-5-7-4-12 2-7 7-11 15-12-12 2-17 9-14 20 0 2 2 4-1 4H4c-1 0-3 0-2-2a10 10 0 0 1 3-4l-5 6a1 1 0 0 1-1 0z" fill="gray"/>
    <path class="cls-2" d="M40 104h-2c-4-10-4-15 2-20s12-6 20 0c-9-2-15-1-19 6a13 13 0 0 0-1 14zM134 19c-16-3-23 7-21 18-4-4-4-11 0-16 3-5 13-9 21-2z"/>
    <path class="cls-3" d="M164 58c-2-6-1-11 3-14s10-3 16 0c-5 0-10-1-13 2s-5 8-6 12zM9 38c-3-5-3-11 1-15s8-5 14-2c-4 2-9 1-12 5s-3 7-3 12zM82 21c-12 1-13 2-15 14-4-4-3-8 1-13 3-3 9-4 14-1z"/>
    <path d="M97 66c-11 0-13 2-15 12-2-3-2-8 1-11 3-4 8-4 14-1z" fill="#5d5d5d"/>
    <path d="M129 104h-3c0-8 12-12 19-6-8-1-13 1-16 6z" fill="#5b5b5b"/>
    <path class="cls-3" d="M181 92c-2-4-1-8 2-11 4-3 7-3 12-1-10 1-12 3-14 12zM131 75c-2-4-2-8 1-11s6-4 11-2c-4 1-7 2-9 4s-2 6-3 9z"/>
    <path d="M51 44c-7 1-10 5-10 12-2-4-2-7 0-9s6-5 10-3z" fill="#5e5e5e"/>
    <path class="cls-7" d="M110 104h-2c0-7 4-10 11-7-5 1-9 2-9 7z"/>
    <path class="cls-8" d="M132 41c5-4 6-9 6-15 3 5 1 11-5 16-1 1-2 0-1-1z"/>
    <path class="cls-9" d="M193 30c-4 1-6 5-7 9-2-6 1-9 7-9z"/>
    <path class="cls-10" d="M2 104H0c3-6 5-7 11-6-4 2-7 3-9 6z"/>
    <path d="M117-2c-5 0-8 2-9 7-1-7 2-9 9-7z" fill="#606060"/>
    <path d="M62 104h-2a27 27 0 0 0 4-13c2 5 0 9-2 13z" fill="#acacac"/>
    <path d="M21 66c1-6 2-7 8-5-4 1-7 2-8 5z" fill="#646464"/>
    <path class="cls-10" d="M107 61c-2-6 0-8 6-8-3 1-6 3-6 8z"/>
    <path class="cls-14" d="M81 40a16 16 0 0 0 6-13c2 6 0 10-5 13z"/>
    <path d="M186 60c-3 5-8 8-14 6 6 0 10-2 13-7l1 1z" fill="#ababab"/>
    <path d="M132 41l1 1c-4 3-8 4-14 2 6-1 9-1 13-3z" fill="#a6a6a6"/>
    <path d="M28 37c-2 5-6 6-11 6 5 0 8-3 11-6z" fill="#b3b3b3"/>
    <path class="cls-7" d="M179 17a22 22 0 0 0-6 6c0-3 1-5 6-6z"/>
    <path class="cls-14" d="M186 60l-1-1a17 17 0 0 0 2-9c1 4 1 7-1 10z"/>
    <path class="cls-9" d="M161 101c0-3 1-4 4-6a8 8 0 0 1-4 6z"/>
    <path class="cls-18" d="M40 1a29 29 0 0 0 7-2c-3 3-3 3-7 2z"/>
    <path class="cls-8" d="M95 84l6-6c-1 4-3 5-6 6z"/>
    <path class="cls-14" d="M28 37l2-8c0 3 1 6-2 8z"/>
    <path d="M11 5H5z" fill="#9f9f9f"/>
    <path d="M200 88c0 2 0 4-2 6l2-6z" fill="#a5a5a5"/>
    <path class="cls-18" d="M82 40c-2 3-5 2-8 2l7-2z"/>
</svg>